<svg width="16" height="17" viewBox="0 0 16 17" fill="none" xmlns="http://www.w3.org/2000/svg">
<path d="M2.16328 3.19388C1.88182 3.19388 1.61189 3.30569 1.41288 3.5047C1.21386 3.70372 1.10205 3.97364 1.10205 4.2551V14.3367C1.10205 14.6182 1.21386 14.8881 1.41288 15.0871C1.61189 15.2861 1.88182 15.398 2.16328 15.398H13.8367C14.1182 15.398 14.3882 15.2861 14.5871 15.0871C14.7861 14.8881 14.898 14.6182 14.898 14.3367V4.2551C14.898 3.97364 14.7861 3.70372 14.5871 3.5047C14.3882 3.30569 14.1182 3.19388 13.8367 3.19388H11.7143" stroke="#666666" stroke-linecap="round" stroke-linejoin="round"/>
<path d="M1.10205 6.90817H14.898" stroke="#666666" stroke-linecap="round" stroke-linejoin="round"/>
<path d="M4.28564 1.60205V4.78572" stroke="#666666" stroke-linecap="round" stroke-linejoin="round"/>
<path d="M11.7144 1.60205V4.78572" stroke="#666666" stroke-linecap="round" stroke-linejoin="round"/>
<path d="M4.28564 3.19388H9.59177" stroke="#666666" stroke-linecap="round" stroke-linejoin="round"/>
</svg>
