<svg width="24" height="24" viewBox="0 0 24 24" fill="none" xmlns="http://www.w3.org/2000/svg">
<path d="M22.5 10.8734C22.5 6.11844 17.7899 2.25 11.9999 2.25C6.21071 2.25 1.5 6.11844 1.5 10.8734C1.5 15.1363 5.23547 18.7063 10.2813 19.3814C10.6233 19.4559 11.0887 19.6095 11.2064 19.9053C11.3123 20.1739 11.2757 20.5948 11.2403 20.8662C11.2403 20.8662 11.117 21.616 11.0905 21.7757C11.0448 22.0444 10.8796 22.8265 11.9999 22.3486C13.1206 21.8707 18.0469 18.7451 20.2498 16.179C21.7715 14.4903 22.5 12.7765 22.5 10.8734Z" fill="#0FC051"/>
<path d="M9.86696 8.56836H9.13046C9.01758 8.56836 8.92578 8.66091 8.92578 8.77468V13.3996C8.92578 13.5135 9.01758 13.6059 9.13046 13.6059H9.86696C9.97991 13.6059 10.0715 13.5135 10.0715 13.3996V8.77468C10.0715 8.66091 9.97991 8.56836 9.86696 8.56836Z" fill="white"/>
<path d="M14.936 8.5683H14.1995C14.0866 8.5683 13.995 8.66085 13.995 8.77462V11.5223L11.8984 8.66002C11.8596 8.60122 11.7968 8.57212 11.7281 8.5683H10.9919C10.8789 8.5683 10.7871 8.66085 10.7871 8.77462V13.3995C10.7871 13.5134 10.8789 13.6058 10.9919 13.6058H11.7281C11.8412 13.6058 11.9328 13.5134 11.9328 13.3995V10.6526L14.0321 13.5185C14.0698 13.5725 14.1338 13.6058 14.1995 13.6058H14.936C15.0491 13.6058 15.1406 13.5134 15.1406 13.3995V8.77462C15.1406 8.66085 15.0491 8.5683 14.936 8.5683Z" fill="white"/>
<path d="M8.09106 12.4477H6.08986V8.77484C6.08986 8.66069 5.99827 8.56807 5.88556 8.56807H5.14885C5.03593 8.56807 4.94434 8.66069 4.94434 8.77484V13.3989C4.94434 13.5112 5.03552 13.6058 5.14864 13.6058H8.09106C8.20393 13.6058 8.29513 13.513 8.29513 13.3989V12.6544C8.29513 12.5402 8.20393 12.4477 8.09106 12.4477Z" fill="white"/>
<path d="M19.0031 9.72627C19.1161 9.72627 19.2073 9.63394 19.2073 9.51957V8.77504C19.2073 8.66089 19.1161 8.56812 19.0031 8.56812H16.061C15.9479 8.56812 15.8564 8.66261 15.8564 8.77489V13.3992C15.8564 13.5111 15.9477 13.6059 16.0605 13.6059H19.0031C19.1161 13.6059 19.2073 13.5131 19.2073 13.3992V12.6544C19.2073 12.5405 19.1161 12.4477 19.0031 12.4477H17.0021V11.666H19.0031C19.1161 11.666 19.2073 11.5734 19.2073 11.4592V10.7148C19.2073 10.6006 19.1161 10.5078 19.0031 10.5078H17.0021V9.72627H19.0031Z" fill="white"/>
</svg>
