<svg width="34" height="34" viewBox="0 0 34 34" fill="none" xmlns="http://www.w3.org/2000/svg">
<path d="M16.9998 33.3827C26.0479 33.3827 33.3825 26.048 33.3825 17C33.3825 7.95211 26.0479 0.617348 16.9998 0.617348C7.95195 0.617348 0.617188 7.95211 0.617188 17C0.617188 26.048 7.95195 33.3827 16.9998 33.3827Z" fill="#FFD359"/>
<path d="M10.6987 23.301H23.3008" stroke="#755A0E" stroke-width="2" stroke-linecap="round" stroke-linejoin="round"/>
<path d="M11.3288 13.2194C10.9808 13.2194 10.6987 12.9373 10.6987 12.5893C10.6987 12.2413 10.9808 11.9592 11.3288 11.9592" stroke="#755A0E" stroke-width="2" stroke-linecap="round" stroke-linejoin="round"/>
<path d="M11.3286 13.2194C11.6766 13.2194 11.9587 12.9373 11.9587 12.5893C11.9587 12.2413 11.6766 11.9592 11.3286 11.9592" stroke="#755A0E" stroke-width="2" stroke-linecap="round" stroke-linejoin="round"/>
<path d="M22.6706 13.2194C22.3226 13.2194 22.0405 12.9373 22.0405 12.5893C22.0405 12.2413 22.3226 11.9592 22.6706 11.9592" stroke="#755A0E" stroke-width="2" stroke-linecap="round" stroke-linejoin="round"/>
<path d="M22.6704 13.2194C23.0184 13.2194 23.3005 12.9373 23.3005 12.5893C23.3005 12.2413 23.0184 11.9592 22.6704 11.9592" stroke="#755A0E" stroke-width="2" stroke-linecap="round" stroke-linejoin="round"/>
</svg>
