<svg width="14" height="14" viewBox="0 0 14 14" fill="none" xmlns="http://www.w3.org/2000/svg">
<path d="M13.2499 10.0751V11.9501C13.2506 12.1241 13.2149 12.2964 13.1452 12.4559C13.0755 12.6154 12.9732 12.7586 12.8449 12.8762C12.7167 12.9939 12.5653 13.0835 12.4004 13.1393C12.2355 13.195 12.0608 13.2157 11.8874 13.2001C9.96417 12.9911 8.11677 12.3339 6.49365 11.2813C4.98354 10.3217 3.70323 9.04142 2.74365 7.53131C1.68738 5.90081 1.03005 4.04443 0.824897 2.11256C0.809279 1.93973 0.829819 1.76554 0.88521 1.60108C0.940601 1.43662 1.02963 1.28549 1.14663 1.15732C1.26362 1.02916 1.40603 0.926754 1.56477 0.856637C1.72351 0.78652 1.89511 0.750224 2.06865 0.750061H3.94365C4.24696 0.747075 4.54102 0.854485 4.771 1.05227C5.00098 1.25005 5.1512 1.52471 5.19365 1.82506C5.27279 2.4251 5.41955 3.01427 5.63115 3.58131C5.71524 3.80501 5.73344 4.04813 5.68359 4.28186C5.63374 4.51559 5.51794 4.73013 5.3499 4.90006L4.55615 5.69381C5.44587 7.25853 6.74143 8.55409 8.30615 9.44381L9.0999 8.65006C9.26983 8.48202 9.48437 8.36622 9.7181 8.31637C9.95183 8.26652 10.1949 8.28472 10.4186 8.36881C10.9857 8.58041 11.5749 8.72717 12.1749 8.80631C12.4785 8.84914 12.7558 9.00207 12.954 9.236C13.1522 9.46993 13.2575 9.76855 13.2499 10.0751Z" fill="#03754A" stroke="#03754A" stroke-linecap="round" stroke-linejoin="round"/>
</svg>
