<svg width="34" height="34" viewBox="0 0 34 34" fill="none" xmlns="http://www.w3.org/2000/svg">
<path d="M16.9998 33.3827C26.0479 33.3827 33.3825 26.048 33.3825 17C33.3825 7.95211 26.0479 0.617348 16.9998 0.617348C7.95195 0.617348 0.617188 7.95211 0.617188 17C0.617188 26.048 7.95195 33.3827 16.9998 33.3827Z" fill="#3CCBE9"/>
<path d="M16.9997 27.0816C21.8716 27.0816 25.8211 23.1322 25.8211 18.2602H8.17822C8.17822 23.1322 12.1277 27.0816 16.9997 27.0816Z" stroke="#166272" stroke-width="2" stroke-linecap="round" stroke-linejoin="round"/>
<path d="M20.4458 12.3389C20.84 11.6983 21.7073 11.2876 22.5483 11.2876C23.3893 11.2876 24.2566 11.6983 24.6509 12.3389" stroke="#166272" stroke-width="2" stroke-linecap="round" stroke-linejoin="round"/>
<path d="M13.5541 12.3389C13.1599 11.6983 12.2926 11.2876 11.4516 11.2876C10.6106 11.2876 9.74334 11.6983 9.34912 12.3389" stroke="#166272" stroke-width="2" stroke-linecap="round" stroke-linejoin="round"/>
</svg>
