<svg width="34" height="34" viewBox="0 0 34 34" fill="none" xmlns="http://www.w3.org/2000/svg">
<path d="M16.9998 33.3827C26.0479 33.3827 33.3825 26.048 33.3825 17C33.3825 7.95211 26.0479 0.617348 16.9998 0.617348C7.95195 0.617348 0.617188 7.95211 0.617188 17C0.617188 26.048 7.95195 33.3827 16.9998 33.3827Z" fill="#FF5155"/>
<path d="M8.92627 12.9095C9.15812 12.4582 9.88357 11.6565 10.7239 11.1713C11.5643 10.6862 12.6213 10.4587 13.128 10.4836" stroke="#740F11" stroke-width="2" stroke-linecap="round" stroke-linejoin="round"/>
<path d="M20.8716 10.4799C21.3783 10.4551 22.4354 10.6824 23.2757 11.1676C24.1161 11.6528 24.8414 12.4545 25.0733 12.9058" stroke="#740F11" stroke-width="2" stroke-linecap="round" stroke-linejoin="round"/>
<path d="M4.78564 18.3571C6.0384 19.2619 10.423 21.0714 16.9999 21.0714C23.5769 21.0714 27.9614 19.2619 29.2142 18.3571" stroke="#F7F7F7" stroke-width="2" stroke-linecap="round" stroke-linejoin="round"/>
<path d="M16.9996 30.5714C19.4473 30.5714 21.7552 30.0938 23.7853 29.2492V21.0714C21.8218 21.3552 19.5474 21.5422 16.9996 21.5422C14.4518 21.5422 12.1773 21.3552 10.2139 21.0714V29.2492C12.2439 30.0938 14.5519 30.5714 16.9996 30.5714Z" fill="#F7F7F7" stroke="#F7F7F7" stroke-width="2" stroke-linecap="round" stroke-linejoin="round"/>
</svg>
