<svg width="24" height="23" viewBox="0 0 24 23" fill="none" xmlns="http://www.w3.org/2000/svg">
<path d="M4.03462 3.84322C4.02806 3.85319 4.55988 4.58781 5.21317 5.47202C5.86647 6.35623 7.25512 8.23766 8.29908 9.6504L10.1966 12.2199L10.0751 12.3595C10.0062 12.436 8.61095 13.9617 6.97608 15.7501C5.34121 17.5418 3.99851 19.0177 3.99523 19.0343C3.98866 19.0509 4.27427 19.0642 4.68463 19.0609L5.38388 19.0576L5.61369 18.8016C5.74172 18.662 6.93012 17.3623 8.2564 15.9097C9.58268 14.457 10.7054 13.2271 10.7514 13.1739L10.8335 13.0775L11.49 13.9684C11.8511 14.457 12.8459 15.8066 13.6994 16.9634L15.2555 19.0642H17.6356C19.6151 19.0642 20.0124 19.0576 19.9992 19.021C19.9894 18.9944 19.3853 18.17 18.6565 17.1828C17.9277 16.1988 17.0939 15.0687 16.805 14.6764C16.5128 14.2842 15.656 13.1174 14.8944 12.0903C14.1327 11.0598 13.509 10.2022 13.509 10.1889C13.509 10.1656 17.5338 5.74127 18.9028 4.26205L19.2934 3.83989H18.5745L17.8588 3.84322L17.0217 4.76067C16.5621 5.26593 15.436 6.50249 14.5168 7.50304L12.8524 9.32464L10.8335 6.59224L8.81121 3.85651L6.43112 3.83989C5.12125 3.82992 4.04119 3.83325 4.03462 3.84322ZM9.6746 6.78836C10.4526 7.84542 11.6542 9.4709 12.3436 10.405C13.033 11.3357 14.5628 13.4099 15.7446 15.0088C16.9265 16.611 17.9048 17.9373 17.9212 17.9606C17.9409 17.9905 17.7078 18.0005 16.8575 18.0005H15.7709L13.6173 15.082C8.64706 8.35733 6.13895 4.96011 6.1094 4.91025C6.0897 4.88033 6.31294 4.87036 7.16977 4.87036H8.2564L9.6746 6.78836Z" fill="#080808"/>
</svg>
